<mxfile host="app.diagrams.net" agent="Mozilla/5.0 (Windows NT 10.0; Win64; x64) AppleWebKit/537.36 (KHTML, like Gecko) Chrome/133.0.0.0 Safari/537.36" version="26.0.16" pages="4">
  <diagram name="Clock" id="9cqj9Gj7yjOjQMQ0VUwX">
    <mxGraphModel grid="1" page="1" gridSize="10" guides="1" tooltips="1" connect="1" arrows="1" fold="1" pageScale="1" pageWidth="827" pageHeight="1169" math="0" shadow="0">
      <root>
        <mxCell id="0" />
        <mxCell id="1" parent="0" />
        <mxCell id="RG0qKrcWC5957B3-tExf-1" value="Normal" style="ellipse;whiteSpace=wrap;html=1;aspect=fixed;" vertex="1" parent="1">
          <mxGeometry x="170" y="100" width="80" height="80" as="geometry" />
        </mxCell>
        <mxCell id="RG0qKrcWC5957B3-tExf-2" value="Date" style="ellipse;whiteSpace=wrap;html=1;aspect=fixed;" vertex="1" parent="1">
          <mxGeometry x="480" y="100" width="80" height="80" as="geometry" />
        </mxCell>
        <mxCell id="RG0qKrcWC5957B3-tExf-3" value="alarm toggle" style="ellipse;whiteSpace=wrap;html=1;aspect=fixed;" vertex="1" parent="1">
          <mxGeometry x="170" y="260" width="80" height="80" as="geometry" />
        </mxCell>
        <mxCell id="RG0qKrcWC5957B3-tExf-4" value="Alarm time" style="ellipse;whiteSpace=wrap;html=1;aspect=fixed;" vertex="1" parent="1">
          <mxGeometry x="480" y="260" width="80" height="80" as="geometry" />
        </mxCell>
        <mxCell id="RG0qKrcWC5957B3-tExf-5" value="" style="endArrow=classic;html=1;rounded=0;exitX=1;exitY=0.5;exitDx=0;exitDy=0;entryX=0.035;entryY=0.74;entryDx=0;entryDy=0;entryPerimeter=0;" edge="1" parent="1">
          <mxGeometry width="50" height="50" relative="1" as="geometry">
            <mxPoint x="250" y="151" as="sourcePoint" />
            <mxPoint x="482.79999999999995" y="150.20000000000005" as="targetPoint" />
            <Array as="points">
              <mxPoint x="340" y="150" />
            </Array>
          </mxGeometry>
        </mxCell>
        <mxCell id="RG0qKrcWC5957B3-tExf-6" value="" style="endArrow=classic;html=1;rounded=0;entryX=1.085;entryY=0.385;entryDx=0;entryDy=0;entryPerimeter=0;" edge="1" parent="1">
          <mxGeometry width="50" height="50" relative="1" as="geometry">
            <mxPoint x="473.2" y="130" as="sourcePoint" />
            <mxPoint x="249.99999999999994" y="130.79999999999995" as="targetPoint" />
            <Array as="points">
              <mxPoint x="303.2" y="130" />
            </Array>
          </mxGeometry>
        </mxCell>
        <mxCell id="RG0qKrcWC5957B3-tExf-7" value="start/stop depressed" style="text;html=1;align=center;verticalAlign=middle;whiteSpace=wrap;rounded=0;" vertex="1" parent="1">
          <mxGeometry x="354" y="150" width="60" height="30" as="geometry" />
        </mxCell>
        <mxCell id="RG0qKrcWC5957B3-tExf-9" value="reset" style="text;html=1;align=center;verticalAlign=middle;whiteSpace=wrap;rounded=0;" vertex="1" parent="1">
          <mxGeometry x="130" y="70" width="60" height="30" as="geometry" />
        </mxCell>
        <mxCell id="RG0qKrcWC5957B3-tExf-13" value="" style="curved=1;endArrow=classic;html=1;rounded=0;exitX=1.05;exitY=0.64;exitDx=0;exitDy=0;exitPerimeter=0;entryX=0.75;entryY=0.085;entryDx=0;entryDy=0;entryPerimeter=0;" edge="1" parent="1" source="RG0qKrcWC5957B3-tExf-2" target="RG0qKrcWC5957B3-tExf-2">
          <mxGeometry width="50" height="50" relative="1" as="geometry">
            <mxPoint x="610" y="110" as="sourcePoint" />
            <mxPoint x="590" y="80" as="targetPoint" />
            <Array as="points">
              <mxPoint x="590" y="130" />
              <mxPoint x="600" y="90" />
              <mxPoint x="540" y="80" />
            </Array>
          </mxGeometry>
        </mxCell>
        <mxCell id="RG0qKrcWC5957B3-tExf-18" value="start/stop depressed" style="text;html=1;align=center;verticalAlign=middle;whiteSpace=wrap;rounded=0;" vertex="1" parent="1">
          <mxGeometry x="590" y="60" width="60" height="30" as="geometry" />
        </mxCell>
        <mxCell id="RG0qKrcWC5957B3-tExf-19" value="" style="endArrow=classic;html=1;rounded=0;exitX=1;exitY=0.5;exitDx=0;exitDy=0;entryX=0.005;entryY=0.42;entryDx=0;entryDy=0;entryPerimeter=0;" edge="1" parent="1" target="RG0qKrcWC5957B3-tExf-4">
          <mxGeometry width="50" height="50" relative="1" as="geometry">
            <mxPoint x="230" y="181" as="sourcePoint" />
            <mxPoint x="463" y="180" as="targetPoint" />
          </mxGeometry>
        </mxCell>
        <mxCell id="RG0qKrcWC5957B3-tExf-20" value="" style="endArrow=classic;html=1;rounded=0;exitX=0;exitY=0;exitDx=0;exitDy=0;entryX=1.01;entryY=0.805;entryDx=0;entryDy=0;entryPerimeter=0;" edge="1" parent="1" source="RG0qKrcWC5957B3-tExf-4" target="RG0qKrcWC5957B3-tExf-1">
          <mxGeometry width="50" height="50" relative="1" as="geometry">
            <mxPoint x="240" y="191" as="sourcePoint" />
            <mxPoint x="490" y="310" as="targetPoint" />
          </mxGeometry>
        </mxCell>
        <mxCell id="RG0qKrcWC5957B3-tExf-21" value="lap/reset deprerssed" style="text;html=1;align=center;verticalAlign=middle;whiteSpace=wrap;rounded=0;" vertex="1" parent="1">
          <mxGeometry x="250" y="210" width="60" height="30" as="geometry" />
        </mxCell>
        <mxCell id="RG0qKrcWC5957B3-tExf-22" value="lap/reset released" style="text;html=1;align=center;verticalAlign=middle;whiteSpace=wrap;rounded=0;" vertex="1" parent="1">
          <mxGeometry x="413.5" y="210" width="60" height="30" as="geometry" />
        </mxCell>
        <mxCell id="RG0qKrcWC5957B3-tExf-24" value="" style="endArrow=classic;html=1;rounded=0;exitX=1;exitY=0.5;exitDx=0;exitDy=0;entryX=0.035;entryY=0.74;entryDx=0;entryDy=0;entryPerimeter=0;" edge="1" parent="1">
          <mxGeometry width="50" height="50" relative="1" as="geometry">
            <mxPoint x="250" y="321" as="sourcePoint" />
            <mxPoint x="483" y="320" as="targetPoint" />
          </mxGeometry>
        </mxCell>
        <mxCell id="RG0qKrcWC5957B3-tExf-25" value="" style="endArrow=classic;html=1;rounded=0;entryX=1.085;entryY=0.385;entryDx=0;entryDy=0;entryPerimeter=0;" edge="1" parent="1">
          <mxGeometry width="50" height="50" relative="1" as="geometry">
            <mxPoint x="477" y="300" as="sourcePoint" />
            <mxPoint x="253.79999999999995" y="300.79999999999995" as="targetPoint" />
            <Array as="points">
              <mxPoint x="307" y="300" />
            </Array>
          </mxGeometry>
        </mxCell>
        <mxCell id="RG0qKrcWC5957B3-tExf-26" value="start/stop depressed" style="text;html=1;align=center;verticalAlign=middle;whiteSpace=wrap;rounded=0;" vertex="1" parent="1">
          <mxGeometry x="320" y="260" width="60" height="30" as="geometry" />
        </mxCell>
        <mxCell id="RG0qKrcWC5957B3-tExf-28" value="start/stop released" style="text;html=1;align=center;verticalAlign=middle;whiteSpace=wrap;rounded=0;" vertex="1" parent="1">
          <mxGeometry x="320" y="330" width="60" height="30" as="geometry" />
        </mxCell>
        <mxCell id="RG0qKrcWC5957B3-tExf-31" value="" style="curved=1;endArrow=classic;html=1;rounded=0;exitX=1.05;exitY=0.64;exitDx=0;exitDy=0;exitPerimeter=0;entryX=0.75;entryY=0.085;entryDx=0;entryDy=0;entryPerimeter=0;" edge="1" parent="1">
          <mxGeometry width="50" height="50" relative="1" as="geometry">
            <mxPoint x="564" y="310.5" as="sourcePoint" />
            <mxPoint x="540" y="266.5" as="targetPoint" />
            <Array as="points">
              <mxPoint x="590" y="289.5" />
              <mxPoint x="600" y="249.5" />
              <mxPoint x="540" y="239.5" />
            </Array>
          </mxGeometry>
        </mxCell>
        <mxCell id="RG0qKrcWC5957B3-tExf-32" value="lap/reset depressed" style="text;html=1;align=center;verticalAlign=middle;whiteSpace=wrap;rounded=0;" vertex="1" parent="1">
          <mxGeometry x="580" y="210" width="60" height="30" as="geometry" />
        </mxCell>
        <mxCell id="RG0qKrcWC5957B3-tExf-34" value="" style="endArrow=classic;html=1;rounded=0;entryX=0.36;entryY=1.03;entryDx=0;entryDy=0;entryPerimeter=0;" edge="1" parent="1" target="RG0qKrcWC5957B3-tExf-1">
          <mxGeometry width="50" height="50" relative="1" as="geometry">
            <mxPoint x="200" y="260" as="sourcePoint" />
            <mxPoint x="250" y="210" as="targetPoint" />
          </mxGeometry>
        </mxCell>
        <mxCell id="RG0qKrcWC5957B3-tExf-35" value="lap/reset released" style="text;html=1;align=center;verticalAlign=middle;whiteSpace=wrap;rounded=0;" vertex="1" parent="1">
          <mxGeometry x="130" y="210" width="60" height="30" as="geometry" />
        </mxCell>
        <mxCell id="RG0qKrcWC5957B3-tExf-38" value="" style="curved=1;endArrow=classic;html=1;rounded=0;entryX=-0.045;entryY=0.705;entryDx=0;entryDy=0;entryPerimeter=0;exitX=0.5;exitY=1;exitDx=0;exitDy=0;" edge="1" parent="1" source="RG0qKrcWC5957B3-tExf-3" target="RG0qKrcWC5957B3-tExf-3">
          <mxGeometry width="50" height="50" relative="1" as="geometry">
            <mxPoint x="220" y="350" as="sourcePoint" />
            <mxPoint x="120" y="377" as="targetPoint" />
            <Array as="points">
              <mxPoint x="170" y="400" />
              <mxPoint x="120" y="350" />
            </Array>
          </mxGeometry>
        </mxCell>
        <mxCell id="RG0qKrcWC5957B3-tExf-40" value="start/stop depressed" style="text;html=1;align=center;verticalAlign=middle;whiteSpace=wrap;rounded=0;" vertex="1" parent="1">
          <mxGeometry x="120" y="390" width="60" height="30" as="geometry" />
        </mxCell>
        <mxCell id="RG0qKrcWC5957B3-tExf-41" value="" style="endArrow=classic;html=1;rounded=0;" edge="1" parent="1">
          <mxGeometry width="50" height="50" relative="1" as="geometry">
            <mxPoint x="130" y="90" as="sourcePoint" />
            <mxPoint x="175" y="115" as="targetPoint" />
          </mxGeometry>
        </mxCell>
        <mxCell id="RG0qKrcWC5957B3-tExf-42" value="start/stop released" style="text;html=1;align=center;verticalAlign=middle;whiteSpace=wrap;rounded=0;" vertex="1" parent="1">
          <mxGeometry x="354" y="90" width="60" height="30" as="geometry" />
        </mxCell>
      </root>
    </mxGraphModel>
  </diagram>
  <diagram id="2IR37qf4QehfL7t-tvkI" name="stopwatch">
    <mxGraphModel dx="844" dy="434" grid="1" gridSize="10" guides="1" tooltips="1" connect="1" arrows="1" fold="1" page="1" pageScale="1" pageWidth="827" pageHeight="1169" math="0" shadow="0">
      <root>
        <mxCell id="0" />
        <mxCell id="1" parent="0" />
        <mxCell id="ngeOBPJPC7xrpz5gcQyD-1" value="Chrono Mode" style="ellipse;whiteSpace=wrap;html=1;aspect=fixed;" parent="1" vertex="1">
          <mxGeometry x="170" y="100" width="80" height="80" as="geometry" />
        </mxCell>
        <mxCell id="ngeOBPJPC7xrpz5gcQyD-2" value="Counting" style="ellipse;whiteSpace=wrap;html=1;aspect=fixed;" parent="1" vertex="1">
          <mxGeometry x="480" y="100" width="80" height="80" as="geometry" />
        </mxCell>
        <mxCell id="ngeOBPJPC7xrpz5gcQyD-3" value="Stopped" style="ellipse;whiteSpace=wrap;html=1;aspect=fixed;" parent="1" vertex="1">
          <mxGeometry x="790" y="100" width="80" height="80" as="geometry" />
        </mxCell>
        <mxCell id="ngeOBPJPC7xrpz5gcQyD-4" value="Lap" style="ellipse;whiteSpace=wrap;html=1;aspect=fixed;" parent="1" vertex="1">
          <mxGeometry x="480" y="260" width="80" height="80" as="geometry" />
        </mxCell>
        <mxCell id="ngeOBPJPC7xrpz5gcQyD-5" value="Start/Stop Low to High" style="endArrow=classic;html=1;rounded=0;exitX=1;exitY=0.5;exitDx=0;exitDy=0;entryX=0;entryY=0.5;entryDx=0;entryDy=0;" parent="1" edge="1">
          <mxGeometry width="50" height="50" relative="1" as="geometry">
            <mxPoint x="250" y="139.5" as="sourcePoint" />
            <mxPoint x="480" y="139.5" as="targetPoint" />
          </mxGeometry>
        </mxCell>
        <mxCell id="ngeOBPJPC7xrpz5gcQyD-6" value="Start Stop Low to High" style="endArrow=classic;html=1;rounded=0;exitX=1;exitY=0.5;exitDx=0;exitDy=0;entryX=0;entryY=0.5;entryDx=0;entryDy=0;" parent="1" edge="1">
          <mxGeometry width="50" height="50" relative="1" as="geometry">
            <mxPoint x="560" y="170" as="sourcePoint" />
            <mxPoint x="790" y="170" as="targetPoint" />
          </mxGeometry>
        </mxCell>
        <mxCell id="ngeOBPJPC7xrpz5gcQyD-8" value="Start Stop Low to High" style="endArrow=classic;html=1;rounded=0;exitX=1;exitY=0.5;exitDx=0;exitDy=0;entryX=0;entryY=0.5;entryDx=0;entryDy=0;" parent="1" edge="1">
          <mxGeometry width="50" height="50" relative="1" as="geometry">
            <mxPoint x="790" y="110" as="sourcePoint" />
            <mxPoint x="560" y="110" as="targetPoint" />
          </mxGeometry>
        </mxCell>
        <mxCell id="H4vyHn_uimje9fcxOapJ-1" value="Start Stop Low to High" style="endArrow=classic;html=1;rounded=0;exitX=1;exitY=0.5;exitDx=0;exitDy=0;entryX=0.5;entryY=1;entryDx=0;entryDy=0;" edge="1" parent="1" target="ngeOBPJPC7xrpz5gcQyD-3">
          <mxGeometry width="50" height="50" relative="1" as="geometry">
            <mxPoint x="560" y="299.5" as="sourcePoint" />
            <mxPoint x="790" y="299.5" as="targetPoint" />
          </mxGeometry>
        </mxCell>
        <mxCell id="H4vyHn_uimje9fcxOapJ-2" value="Lap/Reset Button Low to High" style="endArrow=classic;html=1;rounded=0;exitX=1;exitY=0.5;exitDx=0;exitDy=0;entryX=0.5;entryY=0;entryDx=0;entryDy=0;" edge="1" parent="1" target="ngeOBPJPC7xrpz5gcQyD-4">
          <mxGeometry width="50" height="50" relative="1" as="geometry">
            <mxPoint x="520" y="180" as="sourcePoint" />
            <mxPoint x="750" y="180" as="targetPoint" />
          </mxGeometry>
        </mxCell>
        <mxCell id="H4vyHn_uimje9fcxOapJ-3" value="Lap/Reset Low to High" style="curved=1;endArrow=classic;html=1;rounded=0;exitX=0;exitY=0.5;exitDx=0;exitDy=0;entryX=0;entryY=1;entryDx=0;entryDy=0;" edge="1" parent="1" source="ngeOBPJPC7xrpz5gcQyD-4" target="ngeOBPJPC7xrpz5gcQyD-4">
          <mxGeometry x="-0.2413" y="-7" width="50" height="50" relative="1" as="geometry">
            <mxPoint x="700" y="410" as="sourcePoint" />
            <mxPoint x="750" y="360" as="targetPoint" />
            <Array as="points">
              <mxPoint x="420" y="320" />
              <mxPoint x="492" y="360" />
            </Array>
            <mxPoint as="offset" />
          </mxGeometry>
        </mxCell>
        <mxCell id="H4vyHn_uimje9fcxOapJ-5" value="Lap/Reset Button Low to High" style="curved=1;endArrow=classic;html=1;rounded=0;exitX=0.5;exitY=0;exitDx=0;exitDy=0;entryX=0.5;entryY=0;entryDx=0;entryDy=0;" edge="1" parent="1" source="ngeOBPJPC7xrpz5gcQyD-3" target="ngeOBPJPC7xrpz5gcQyD-1">
          <mxGeometry width="50" height="50" relative="1" as="geometry">
            <mxPoint x="430" y="110" as="sourcePoint" />
            <mxPoint x="480" y="60" as="targetPoint" />
            <Array as="points">
              <mxPoint x="640" y="40" />
              <mxPoint x="400" y="40" />
            </Array>
          </mxGeometry>
        </mxCell>
        <mxCell id="H4vyHn_uimje9fcxOapJ-6" value="Reset" style="endArrow=classic;html=1;rounded=0;entryX=0;entryY=0;entryDx=0;entryDy=0;" edge="1" parent="1" target="ngeOBPJPC7xrpz5gcQyD-1">
          <mxGeometry width="50" height="50" relative="1" as="geometry">
            <mxPoint x="160" y="30" as="sourcePoint" />
            <mxPoint x="590" y="150" as="targetPoint" />
          </mxGeometry>
        </mxCell>
      </root>
    </mxGraphModel>
  </diagram>
  <diagram id="q-XKUNlvHSGximqduw9o" name="alarm">
    <mxGraphModel dx="1434" dy="738" grid="1" gridSize="10" guides="1" tooltips="1" connect="1" arrows="1" fold="1" page="1" pageScale="1" pageWidth="827" pageHeight="1169" math="0" shadow="0">
      <root>
        <mxCell id="0" />
        <mxCell id="1" parent="0" />
        <mxCell id="H-pp2MTDAGIDneQ5Eigu-1" value="" style="ellipse;whiteSpace=wrap;html=1;" vertex="1" parent="1">
          <mxGeometry x="510" y="160" width="120" height="80" as="geometry" />
        </mxCell>
      </root>
    </mxGraphModel>
  </diagram>
  <diagram id="v14A6wvQIW5SsRH9XLJc" name="Top level">
    <mxGraphModel dx="1042" dy="661" grid="1" gridSize="10" guides="1" tooltips="1" connect="1" arrows="1" fold="1" page="1" pageScale="1" pageWidth="827" pageHeight="1169" math="0" shadow="0">
      <root>
        <mxCell id="0" />
        <mxCell id="1" parent="0" />
        <mxCell id="sCGjDhqWXTcfMbYISutA-1" value="Clock" style="ellipse;whiteSpace=wrap;html=1;aspect=fixed;" vertex="1" parent="1">
          <mxGeometry x="370" y="120" width="80" height="80" as="geometry" />
        </mxCell>
        <mxCell id="sCGjDhqWXTcfMbYISutA-2" value="Alarm set" style="ellipse;whiteSpace=wrap;html=1;aspect=fixed;" vertex="1" parent="1">
          <mxGeometry x="490" y="270" width="80" height="80" as="geometry" />
        </mxCell>
        <mxCell id="sCGjDhqWXTcfMbYISutA-3" value="Stopwatch" style="ellipse;whiteSpace=wrap;html=1;aspect=fixed;" vertex="1" parent="1">
          <mxGeometry x="250" y="270" width="80" height="80" as="geometry" />
        </mxCell>
        <mxCell id="sCGjDhqWXTcfMbYISutA-5" value="" style="endArrow=classic;html=1;rounded=0;exitX=0;exitY=0.5;exitDx=0;exitDy=0;entryX=1;entryY=0.5;entryDx=0;entryDy=0;" edge="1" parent="1" source="sCGjDhqWXTcfMbYISutA-2" target="sCGjDhqWXTcfMbYISutA-3">
          <mxGeometry width="50" height="50" relative="1" as="geometry">
            <mxPoint x="414" y="220" as="sourcePoint" />
            <mxPoint x="486" y="314" as="targetPoint" />
          </mxGeometry>
        </mxCell>
        <mxCell id="sCGjDhqWXTcfMbYISutA-6" value="" style="endArrow=classic;html=1;rounded=0;exitX=1;exitY=1;exitDx=0;exitDy=0;entryX=0;entryY=0;entryDx=0;entryDy=0;" edge="1" parent="1" source="sCGjDhqWXTcfMbYISutA-1" target="sCGjDhqWXTcfMbYISutA-2">
          <mxGeometry width="50" height="50" relative="1" as="geometry">
            <mxPoint x="500" y="320" as="sourcePoint" />
            <mxPoint x="340" y="320" as="targetPoint" />
          </mxGeometry>
        </mxCell>
        <mxCell id="sCGjDhqWXTcfMbYISutA-7" value="" style="endArrow=classic;html=1;rounded=0;exitX=1;exitY=0;exitDx=0;exitDy=0;entryX=0;entryY=1;entryDx=0;entryDy=0;" edge="1" parent="1" source="sCGjDhqWXTcfMbYISutA-3" target="sCGjDhqWXTcfMbYISutA-1">
          <mxGeometry width="50" height="50" relative="1" as="geometry">
            <mxPoint x="448" y="198" as="sourcePoint" />
            <mxPoint x="512" y="292" as="targetPoint" />
          </mxGeometry>
        </mxCell>
        <mxCell id="usG0hsKW0j7iFzZzFdtJ-1" value="" style="endArrow=classic;html=1;rounded=0;entryX=0;entryY=0;entryDx=0;entryDy=0;" edge="1" parent="1" target="sCGjDhqWXTcfMbYISutA-1">
          <mxGeometry width="50" height="50" relative="1" as="geometry">
            <mxPoint x="350" y="90" as="sourcePoint" />
            <mxPoint x="392" y="198" as="targetPoint" />
          </mxGeometry>
        </mxCell>
        <mxCell id="-WTVZN4gzC-eLRTlXxJW-1" value="reset" style="text;html=1;align=center;verticalAlign=middle;whiteSpace=wrap;rounded=0;" vertex="1" parent="1">
          <mxGeometry x="354" y="80" width="60" height="30" as="geometry" />
        </mxCell>
        <mxCell id="-WTVZN4gzC-eLRTlXxJW-2" value="! (&lt;span style=&quot;background-color: transparent; color: light-dark(rgb(0, 0, 0), rgb(255, 255, 255));&quot;&gt;low to high transition)&lt;/span&gt;" style="text;html=1;align=center;verticalAlign=middle;whiteSpace=wrap;rounded=0;" vertex="1" parent="1">
          <mxGeometry x="600" y="260" width="100" height="30" as="geometry" />
        </mxCell>
        <mxCell id="byN-jcqiZOBNDV4rVO_l-1" value="" style="curved=1;endArrow=classic;html=1;rounded=0;exitX=1.05;exitY=0.64;exitDx=0;exitDy=0;exitPerimeter=0;entryX=0.75;entryY=0.085;entryDx=0;entryDy=0;entryPerimeter=0;" edge="1" parent="1">
          <mxGeometry width="50" height="50" relative="1" as="geometry">
            <mxPoint x="574" y="321" as="sourcePoint" />
            <mxPoint x="550" y="277" as="targetPoint" />
            <Array as="points">
              <mxPoint x="600" y="300" />
              <mxPoint x="610" y="260" />
              <mxPoint x="550" y="250" />
            </Array>
          </mxGeometry>
        </mxCell>
        <mxCell id="3dXdESDtEUY_LuGRnJY3-1" value="" style="curved=1;endArrow=classic;html=1;rounded=0;entryX=-0.045;entryY=0.705;entryDx=0;entryDy=0;entryPerimeter=0;exitX=0.5;exitY=1;exitDx=0;exitDy=0;" edge="1" parent="1">
          <mxGeometry width="50" height="50" relative="1" as="geometry">
            <mxPoint x="290" y="354" as="sourcePoint" />
            <mxPoint x="246" y="330" as="targetPoint" />
            <Array as="points">
              <mxPoint x="250" y="414" />
              <mxPoint x="200" y="364" />
            </Array>
          </mxGeometry>
        </mxCell>
        <mxCell id="3dXdESDtEUY_LuGRnJY3-5" value="" style="curved=1;endArrow=classic;html=1;rounded=0;exitX=1.05;exitY=0.64;exitDx=0;exitDy=0;exitPerimeter=0;entryX=0.75;entryY=0.085;entryDx=0;entryDy=0;entryPerimeter=0;" edge="1" parent="1">
          <mxGeometry width="50" height="50" relative="1" as="geometry">
            <mxPoint x="454" y="171" as="sourcePoint" />
            <mxPoint x="430" y="127" as="targetPoint" />
            <Array as="points">
              <mxPoint x="480" y="150" />
              <mxPoint x="490" y="110" />
              <mxPoint x="430" y="100" />
            </Array>
          </mxGeometry>
        </mxCell>
        <mxCell id="3dXdESDtEUY_LuGRnJY3-7" value="low to high transition" style="text;html=1;align=center;verticalAlign=middle;whiteSpace=wrap;rounded=0;" vertex="1" parent="1">
          <mxGeometry x="364" y="320" width="100" height="30" as="geometry" />
        </mxCell>
        <mxCell id="3dXdESDtEUY_LuGRnJY3-8" value="low to high transition" style="text;html=1;align=center;verticalAlign=middle;whiteSpace=wrap;rounded=0;" vertex="1" parent="1">
          <mxGeometry x="240" y="210" width="100" height="30" as="geometry" />
        </mxCell>
        <mxCell id="3dXdESDtEUY_LuGRnJY3-10" value="low to high transition" style="text;html=1;align=center;verticalAlign=middle;whiteSpace=wrap;rounded=0;" vertex="1" parent="1">
          <mxGeometry x="470" y="220" width="100" height="30" as="geometry" />
        </mxCell>
        <mxCell id="3dXdESDtEUY_LuGRnJY3-11" value="! (&lt;span style=&quot;background-color: transparent; color: light-dark(rgb(0, 0, 0), rgb(255, 255, 255));&quot;&gt;low to high transition)&lt;/span&gt;" style="text;html=1;align=center;verticalAlign=middle;whiteSpace=wrap;rounded=0;" vertex="1" parent="1">
          <mxGeometry x="480" y="90" width="100" height="30" as="geometry" />
        </mxCell>
        <mxCell id="3dXdESDtEUY_LuGRnJY3-12" value="! (&lt;span style=&quot;background-color: transparent; color: light-dark(rgb(0, 0, 0), rgb(255, 255, 255));&quot;&gt;low to high transition)&lt;/span&gt;" style="text;html=1;align=center;verticalAlign=middle;whiteSpace=wrap;rounded=0;" vertex="1" parent="1">
          <mxGeometry x="140" y="310" width="100" height="30" as="geometry" />
        </mxCell>
      </root>
    </mxGraphModel>
  </diagram>
</mxfile>
